<?xml version="1.0" encoding="utf-8"?>
<!-- Generator: Adobe Illustrator 19.2.1, SVG Export Plug-In . SVG Version: 6.00 Build 0)  -->
<svg version="1.1" xmlns="http://www.w3.org/2000/svg" xmlns:xlink="http://www.w3.org/1999/xlink" x="0px" y="0px"
	 viewBox="279.4 -979.3 2409.6 953.4" style="enable-background:new 279.4 -979.3 2409.6 953.4;" xml:space="preserve">
<style type="text/css">
	.st0{fill:#FFFFFF;}
	.st1{fill:#282A31;}
	.st2{fill:#039CFD;}
</style>
<g id="color_pallete">
</g>
<g id="app_icon">
	<g>
		<path id="Path-Copy-5_4_" class="st0" d="M2199.6-354.6c18.7,0,34.3-14.5,34.3-34.6c0-19.2-15.7-33.8-34.3-33.8
			c-18.3,0-33.6,14.5-33.6,33.8C2166-369.2,2181.3-354.6,2199.6-354.6L2199.6-354.6z"/>
		<path class="st0" d="M2395.3-634.9v92.9c-13.2-6.3-28.3-9.8-44.6-9.8c-57.6,0-99.9,42.8-99.9,100.2c0,58.1,42.3,100.6,99.9,100.6
			c16.3,0,31.4-3.4,44.6-9.7v4.7h63.2v-278.9H2395.3z M2351.4-406.9c-26.6,0-44.3-18.7-44.3-44.2c0-24.7,17.6-44.6,44.3-44.6
			c26.2,0,43.9,19.8,43.9,44.6C2395.3-425.6,2377.6-406.9,2351.4-406.9z"/>
		<path id="Combined-Shape-Copy-2_4_" class="st0" d="M1945.6-451.5c0,58.1,42.3,100.6,99.9,100.6c57.2,0,99.5-42.4,99.5-100.6
			c0-57.4-42.3-100.2-99.5-100.2C1987.8-551.7,1945.6-508.8,1945.6-451.5z M2045.4-407.6c-26.2,0-43.5-18.4-43.5-43.5
			c0-24.3,17.3-43.8,43.5-43.8c25.8,0,43.1,19.5,43.1,43.8C2088.6-426,2071.2-407.6,2045.4-407.6z"/>
		<path id="Combined-Shape-Copy-3_4_" class="st0" d="M2616-411c-7.3,5.8-16.6,9.3-26.6,9.3c-18.7,0-34.6-12-40.4-28.7h49.9h88
			c1.4-6.7,2.2-13.6,2.2-20.8v-1.5c0-55.1-44.6-99.6-99.7-99.6c-55.1,0-99.7,44.6-99.7,99.6v1.5c0,55.1,44.6,99.6,99.7,99.6
			c32,0,60.5-15.1,78.8-38.5L2616-411z M2549-473.4c5.8-16.7,21.7-28.7,40.4-28.7c18.7,0,34.6,12,40.4,28.7H2549z"/>
		<path id="Path-Copy-6_4_" class="st0" d="M1840.6-551.7c-20.3,0-36.7,6.3-51.9,17.7v-12.6h-63.6v190.5h63.6v-119.8
			c10.9-12.2,23-18.1,34.3-18.1c21.1,0,34.7,12.2,34.7,39.3v98.6h63.2v-108.8C1920.9-519.1,1888.2-551.7,1840.6-551.7L1840.6-551.7z
			"/>
		<polygon id="Path-Copy-7_4_" class="st0" points="1623.4,-546.6 1623.4,-356.1 1686.6,-356.1 1686.6,-546.6 		"/>
		<path id="Path-Copy-8_4_" class="st0" d="M1657.3-566.6c18.6,0,33.9-14.6,33.9-34c0-19.8-15.4-34.4-33.9-34.4
			c-18.9,0-33.9,14.6-33.9,34.4C1623.4-581.1,1638.4-566.6,1657.3-566.6L1657.3-566.6z"/>
		<polygon id="Path-Copy-9_4_" class="st0" points="1529.4,-356.1 1605.1,-356.1 1527.1,-468.8 1598.8,-546.6 1523.5,-546.6 
			1458,-475.5 1458,-634.9 1394.4,-634.9 1394.4,-356.1 1458,-356.1 1458,-393.8 1484.1,-422.1 		"/>
	</g>
	<g>
		<circle class="st0" cx="756.1" cy="-502.6" r="476.7"/>
	</g>
	<g>
		<path class="st1" d="M949.5-340.9l-2.7-2.7L627.7-660.6l0,0l-53.6-53.2c-15.7,15.6-25.4,37.1-25.4,60.8v38.5l-0.1,0.1v262.4
			l0.1,0.1c0,0.4,0,0.8,0,1.1c0,0,0,0,0,0c0,0.3,0,0.7,0,1v0c0,1.4,0.1,2.9,0.2,4.3c0,0,0,0.1,0,0.1v0c0,0.5,0.1,0.9,0.1,1.3l0,0
			c0,0.3,0,0.6,0.1,0.8l0,0c0.1,0.6,0.1,1.2,0.2,1.7c0,0.1,0,0.3,0,0.4l0,0c0.1,0.6,0.2,1.2,0.3,1.8c0,0.1,0,0.1,0,0.2
			c0,0,0,0.1,0,0.1l0,0c0.1,0.7,0.2,1.4,0.4,2.1v0c0,0.2,0.1,0.4,0.1,0.6c0,0,0,0,0,0c0.1,0.5,0.2,1,0.3,1.5l0,0
			c0,0.2,0.1,0.4,0.1,0.6c0.3,1.2,0.5,2.4,0.8,3.6l0,0c0.1,0.3,0.2,0.6,0.3,1c0,0,0,0,0,0c0.1,0.4,0.2,0.7,0.3,1.1l0,0
			c0.1,0.3,0.2,0.6,0.3,0.9c0,0,0,0,0,0c0.3,1,0.6,2.1,1,3.1l0,0c0,0.1,0.1,0.1,0.1,0.2c0.2,0.7,0.5,1.4,0.8,2.1
			c0.1,0.2,0.1,0.4,0.2,0.6c0,0,0,0,0,0c0.4,1,0.8,2,1.2,3l0,0c0.1,0.1,0.1,0.2,0.2,0.4c0.3,0.6,0.5,1.2,0.8,1.8
			c0.1,0.2,0.2,0.5,0.3,0.7c0,0,0,0,0,0c0.5,1,1,2,1.5,3c0.1,0.2,0.2,0.5,0.4,0.7c0,0,0,0,0,0c0.3,0.6,0.6,1.2,0.9,1.7
			c0,0,0,0.1,0.1,0.1l0,0c0.2,0.3,0.3,0.6,0.5,0.9l0,0c0.1,0.2,0.3,0.5,0.4,0.7c0.6,1,1.1,1.9,1.8,2.8l0,0c0.2,0.3,0.4,0.6,0.5,0.8
			c0.2,0.3,0.4,0.6,0.6,0.9l0,0c0.2,0.2,0.3,0.4,0.5,0.7c0.2,0.3,0.5,0.7,0.7,1l0,0c0,0,0.1,0.1,0.1,0.1c0.4,0.5,0.8,1,1.2,1.6l0,0
			c0.2,0.2,0.3,0.4,0.5,0.6c0.8,1,1.6,2,2.5,3c0.1,0.1,0.2,0.2,0.3,0.4c0,0,0,0,0,0c0.2,0.3,0.5,0.5,0.7,0.8l0,0
			c0.2,0.3,0.5,0.5,0.7,0.8c0,0,0,0,0,0c0.2,0.3,0.5,0.5,0.7,0.8l0,0c0.2,0.2,0.5,0.5,0.7,0.7c0,0,0,0,0,0c0.3,0.4,0.7,0.7,1,1.1
			c0.1,0.1,0.3,0.3,0.4,0.4c0,0,0,0,0,0c0.2,0.2,0.5,0.5,0.7,0.7l0,0c0,0,0.1,0.1,0.1,0.1c15.6,15.4,37.2,24.9,60.9,24.9h287.8
			l0-0.1c22.6-1.5,40.4-20.1,40.4-42.9C963.5-321.7,958.1-333,949.5-340.9z"/>
		<path id="Combined-Shape_1_" class="st2" d="M696.5-413l249.9-248.3l2.2-2.2l-0.1-0.1c9.1-7.9,14.9-19.5,14.9-32.5
			c0-23.5-19-42.6-42.6-43l0,0h-4.3c0,0-10.8,0-21.6,0s-259.6,0-259.6,0c-47.8,0-86.5,38.5-86.5,86v300.9c0,23.9,9.8,45.5,25.6,61.1
			l122.3-121.7C696.6-412.9,696.6-412.9,696.5-413z"/>
	</g>
</g>
</svg>
